# xmcd
#
# Track frame offsets: 
#        150
#        2174
#        30083
#        35943
#        44857
#        60052
#        74152
#        86504
#        104782
#        121883
#        142257
#        161933
#        174314
#        191124
#        206338
#        221350
#        230262
#        242900
#        250374
#        260569
#        270102
#        293184
#        306689
#
# Disc length: 4236 seconds
#
# Revision: 0
# Processed by: cddbd v1.5.2PL0 Copyright (c) Steve Scherf et al.
# Submitted via: ExactAudioCopy v1.0b1
#
DISCID=61108a17
DTITLE=Lietuva - P.Budrius - Lietuva Lietuvai
DYEAR=1999
DGENRE=Folk
TTITLE0=DAUDYTĖS – pjesė, muz. J. Švedo
TTITLE1=LIETUVA BRANGI – muz. J. Naujalio, žodž. Maironio, aranžuota  
TTITLE1=J.Juzeliūno
TTITLE2=KEPURINĖ – liaudies šokis, muz. J. Švedo
TTITLE3=PASIUTPOLKĖ – liaudies šokis, muz. J. Švedo
TTITLE4=LINELIUS ROVIAU – liaudies daina harmonizuota A.Mikulskio. Sol
TTITLE4=istai – Irena Petravičiūtė
TTITLE5=PAKELTKOJIS – liaudies šokis, muz. J. Švedo
TTITLE6=AUKIT, JAVELIAI – sėjos daina, muz. V. Juozapaičio, žodž. S. G
TTITLE6=edos
TTITLE7=KUPOLINIS – daina-šokis, muz. B. Dvariono, žodž. liaudies
TTITLE8=PARUGĖ – preliudas, muz. A. Bražinsko
TTITLE9=SLINKIS – vyrų šokis, muz. B. Kutavičiaus
TTITLE10=VALIOJ, MANO DALGELI – šienapjūtės dainos, muz. A. Bražinsko,
TTITLE10=žodž. liaudies
TTITLE11=KLUMPAKOJIS – liaudies šokis, muz. E. Pilypaičio
TTITLE12=GIEDU DAINELĘ – muz. J. Švedo, žodž. A. Baranausko
TTITLE13=KŪLIMO ŠOKIS – muz. A. Bražinsko
TTITLE14=ANOJ PUSĖJ NEMUNĖLIO – liaudies daina harmonizuota  J. Švedo.
TTITLE14=Solistė – Irena Petravičiūtė
TTITLE15=MEDINIS ŽIRGELIS – pjesė skrabalams, muz. B. Dvariono. Solist
TTITLE15=as – Arvydas Rutė
TTITLE16=GAILINGIS – liaudies šokis, muz. V. Juozapaičio
TTITLE17=KIŠKELIS – pjesė skudučiams, muz. J. Švedo
TTITLE18=RUSNIETIS (kadrilis) – pamario krašto žvejų šokis, muz. V. Ju
TTITLE18=ozapaičio
TTITLE19=ŠĖRIAU, ŠĖRIAU SAU ŽIRGELĮ – liaudies daina harmonizuota J. Š
TTITLE19=vedo
TTITLE20=VESTUVINIAI ŠOKIAI – muz. A. Bražinsko ir V. Juozapaičio
TTITLE21=LIETUVA – muz. ir žodž. Vydūno, aranžuota V. Juozapaičio
TTITLE22=ŠVENTINĖ POLKA – muz. J. Švedo
EXTD=
EXTT0=
EXTT1=
EXTT2=
EXTT3=
EXTT4=
EXTT5=
EXTT6=
EXTT7=
EXTT8=
EXTT9=
EXTT10=
EXTT11=
EXTT12=
EXTT13=
EXTT14=
EXTT15=
EXTT16=
EXTT17=
EXTT18=
EXTT19=
EXTT20=
EXTT21=
EXTT22=
PLAYORDER=
